<?xml version="1.0" encoding="UTF-8" standalone="no"?>
<svg width="456" height="456" viewBox="0 0 456 456" version="1.1" xmlns="http://www.w3.org/2000/svg">
    <path d="M 88,110 h 200 a 50,50 0 0 1 50,50 v 85 a 50,50 0 0 1 -50,50 H 175 l -65,50 15,-50 h -10 a 50,50 0 0 1 -50,-50 v -85 a 50,50 0 0 1 50,-50 Z"
          fill="#ffffff" fill-opacity="0.16" />
    <path d="M 228,140 L 240.73,182.27 L 283,195 L 240.73,207.73 L 228,250 L 215.27,207.73 L 173,195 L 215.27,182.27 Z"
          fill="#ffffff" />
    <path d="M 332,128 L 338,146 L 356,152 L 338,158 L 332,176 L 326,158 L 308,152 L 326,146 Z"
          fill="#ffffff" fill-opacity="0.85" />
</svg>